HIERARCHY
ROOT simHips
{
  OFFSET 57.6026 101.098 -111.029
  CHANNELS 6 Xposition Yposition Zposition Zrotation Xrotation Yrotation
  JOINT simSpine
  {
    OFFSET -0.000355721 21.3001 -0.016921
    CHANNELS 3 Zrotation Xrotation Yrotation
    JOINT simLeftArm
    {
      OFFSET 13.5181 21.3012 0
      CHANNELS 3 Zrotation Xrotation Yrotation
      JOINT simLeftForeArm
      {
        OFFSET 24.5783 0 0
        CHANNELS 3 Zrotation Xrotation Yrotation
        JOINT simLeftHand
        {
          OFFSET 24.5783 0 0
          CHANNELS 3 Zrotation Xrotation Yrotation
          End Site
          {
            OFFSET 7.32568 1.52588e-05 0.0169305
          }
        }
      }
    }
    JOINT simHead
    {
      OFFSET 0 27.4458 -0.00489235
      CHANNELS 3 Zrotation Xrotation Yrotation
      End Site
      {
        OFFSET 0 0 0
      }
    }
    JOINT simRightArm
    {
      OFFSET -13.5174 21.3012 0
      CHANNELS 3 Zrotation Xrotation Yrotation
      JOINT simRightForeArm
      {
        OFFSET -24.5783 0 0
        CHANNELS 3 Zrotation Xrotation Yrotation
        JOINT simRightHand
        {
          OFFSET -24.5783 0 0
          CHANNELS 3 Zrotation Xrotation Yrotation
          End Site
          {
            OFFSET -7.32568 1.52588e-05 0.0169305
          }
        }
      }
    }
  }
  JOINT simRightUpLeg
  {
    OFFSET -8.44614 -9.41038 0.835684
    CHANNELS 3 Zrotation Xrotation Yrotation
    JOINT simRightLeg
    {
      OFFSET 0 -40.9639 0
      CHANNELS 3 Zrotation Xrotation Yrotation
      JOINT simRightFoot
      {
        OFFSET 0 -40.9639 0
        CHANNELS 3 Zrotation Xrotation Yrotation
        End Site
        {
          OFFSET 0.50614 -9.67405 14.6709
        }
      }
    }
  }
  JOINT simLeftUpLeg
  {
    OFFSET 8.44614 -9.41038 0.835684
    CHANNELS 3 Zrotation Xrotation Yrotation
    JOINT simLeftLeg
    {
      OFFSET 0 -40.9639 0
      CHANNELS 3 Zrotation Xrotation Yrotation
      JOINT simLeftFoot
      {
        OFFSET 0 -40.9639 0
        CHANNELS 3 Zrotation Xrotation Yrotation
        End Site
        {
          OFFSET -0.50614 -9.67405 14.6709
        }
      }
    }
  }
}
MOTION
Frames:	11
Frame Time:	0.0333333
-97.8573 99.431 -108.994 -1.28957e-08 2.42907e-08 83.9994 14.0922 -5.00257e-05 2.60929e-05 -90.3012 4.92427e-05 -18.1063 0.000102082 -7.97163e-06 -21.7742 -14.8905 -1.00509e-05 -9.4919e-06 -5.1505e-07 -5.89227 2.05957e-05 78.6373 -9.67349e-06 3.58965e-06 2.83988e-05 -2.32614e-05 21.8144 1.73458e-05 2.42851e-05 -2.25118e-05 14.4891 -6.00735 -0.273505 -2.3099 1.72962 -15.526 3.06013 -20.4894 0.347353 14.1119 -13.0999 10.479 -59.0691 64.8736 42.6512 10.2033 -27.3394 8.19526 
-184.071 98.4809 -207.752 3.32874 -4.61126 160.091 14.1258 0.425491 0.0227797 -91.1681 -5.53691 -17.8505 2.13186 3.89939 -17.5405 -14.6299 0.113675 -0.636537 0.470308 -6.13183 -1.80782 79.0341 3.05721 0.568471 -0.0669408 -1.13646 23.2829 0.163143 -0.0099599 -0.111068 14.8711 -5.4901 0.356342 -2.40584 2.23238 -15.5012 3.29738 -21.1369 0.951782 15.0545 -14.3764 11.1739 -64.6081 66.3701 49.4629 10.6244 -26.5225 10.0687 
-172.568 98.7102 -196.641 2.13307 -4.07245 147.895 13.7281 1.13066 0.352877 -92.16 -13.8373 -17.4844 3.71061 8.13481 -12.4428 -13.618 0.186186 -1.02813 1.62793 -6.77161 -2.93201 79.5688 5.36691 2.12092 -0.487731 -0.819055 24.038 0.545004 0.0104636 0.0999249 14.7431 -4.06743 1.23198 -2.47281 1.42099 -15.4875 3.70851 -20.9945 2.4386 17.2677 -18.1595 11.5864 -75.2036 67.9871 60.7807 13.0461 -27.4026 17.5207 
-171.982 98.9319 -197.637 1.32948 -3.86696 144.603 12.7188 1.74191 1.09834 -92.2009 -21.2197 -16.3307 4.26877 10.6807 -9.22227 -12.2932 0.182231 -1.01254 1.69586 -6.42498 -3.5913 79.9792 7.80208 3.21504 -0.566506 -1.28624 24.8329 0.674759 0.016133 0.158456 14.0988 -2.75944 2.77687 -2.62116 0.6011 -15.4649 4.1727 -20.6609 4.03353 18.5603 -21.5928 11.5181 -79.2523 68.3418 65.1258 16.2367 -28.8078 25.974 
-171.425 99.1695 -198.565 0.393538 -3.70049 140.935 11.5836 2.16959 2.09422 -91.1409 -26.4375 -14.2338 4.4257 11.837 -7.76976 -11.8253 0.228111 -1.38953 0.897063 -5.47212 -3.87509 80.4835 9.53772 3.91817 -0.593172 -1.89952 25.7191 0.610096 0.0085396 0.0804284 13.3675 -1.81188 4.6213 -2.86749 0.0720027 -15.4252 4.72442 -20.3059 5.70379 19.7762 -24.7778 10.9912 -77.0955 68.1084 62.6758 18.6689 -30.3965 31.6791 
-170.939 99.4083 -199.452 -0.608959 -3.46254 137.118 10.202 2.58379 3.09891 -89.1517 -29.1265 -11.0746 4.29786 10.9697 -8.15663 -12.1461 0.289729 -1.81017 1.00054 -5.14189 -3.14814 80.9493 11.4573 4.18194 -0.453605 -3.09757 27.062 0.772647 -0.0219301 -0.23116 12.4994 -1.27471 5.99862 -3.11911 -0.0127231 -15.3614 5.50305 -20.0124 7.86259 20.8046 -27.4143 10.0114 -69.6647 67.1073 54.4492 20.1613 -31.9276 34.0979 
-170.535 99.624 -200.3 -1.72897 -3.4174 133.288 8.98215 2.73281 3.92004 -87.0044 -30.0013 -7.28968 3.79221 8.22269 -9.96233 -12.553 0.229234 -1.33882 0.840148 -4.91982 -1.9784 81.0509 13.3452 4.59504 -0.225932 -4.04707 27.9081 0.848662 -0.0342674 -0.356932 11.6671 -1.20141 7.70766 -3.3871 0.000109282 -15.2931 6.17589 -19.7268 9.73461 21.4691 -29.9996 8.25161 -59.5288 65.0562 43.2897 20.9967 -33.0561 34.6693 
-170.185 99.7784 -201.128 -2.77306 -3.53988 129.634 8.00851 2.65709 4.44817 -85.3468 -31.2841 -3.62003 3.09379 5.53726 -12.0424 -12.7313 0.165193 -0.881349 0.814594 -4.79272 -0.51456 80.8443 15.127 4.79113 -0.156125 -4.51227 28.4964 1.00632 -0.0350951 -0.356772 11.0352 -1.37333 9.89329 -3.66139 0.104197 -15.2244 6.64895 -19.4631 11.0314 17.786 -33.9614 4.73155 -40.4805 66.545 27.9335 17.9558 -35.623 34.3121 
-169.855 99.8727 -202.032 -3.68422 -3.77761 126.192 7.2754 2.45858 4.81268 -84.1597 -33.2268 -0.630825 2.43625 3.54452 -13.6057 -12.7824 0.148941 -0.767108 0.786218 -4.68105 1.04735 80.5313 16.3595 4.66756 -0.165788 -4.62967 28.7382 1.12665 -0.0297915 -0.293771 10.5056 -1.50309 12.291 -3.88333 0.0881449 -15.1678 6.99732 -19.1714 12.0571 14.7068 -36.7135 0.181513 -24.944 65.2828 15.2005 15.4023 -38.1177 32.8796 
-169.515 99.9282 -203.019 -4.38174 -4.07039 123.031 6.79427 2.24707 5.06788 -83.3499 -35.1239 1.46233 1.9386 2.16119 -14.4738 -12.7853 0.150585 -0.778668 0.698746 -4.48932 2.62988 80.137 16.6279 4.4164 -0.154379 -4.45408 28.3874 1.14977 -0.0253846 -0.246907 10.0685 -1.5358 14.497 -3.96861 0.10136 -15.1311 7.29434 -18.9723 13.0002 10.2538 -38.9437 -4.2326 -7.66662 64.5949 2.89305 10.073 -40.3097 28.3679 
-169.132 99.955 -204.11 -4.81846 -4.24692 120.26 6.39444 2.24737 4.99571 -82.8246 -36.9321 2.66632 1.81816 1.95663 -14.91 -12.7907 0.146387 -0.749145 0.788218 -4.31073 4.33029 79.648 16.1132 4.03117 -0.0614751 -4.1473 27.563 1.1177 -0.0185827 -0.179323 9.5864 -1.25362 16.0876 -3.95968 -0.000132527 -15.117 7.59729 -18.8311 14.0131 10.313 -40.8361 -4.86355 -3.7932 63.7492 -0.248523 7.20696 -40.8586 22.7751 
